<svg width="101" height="3471" viewBox="0 0 101 3471" fill="none" xmlns="http://www.w3.org/2000/svg">
<circle cx="51" cy="50" r="49" fill="#151517" stroke="#323232" stroke-width="2"/>
<path d="M51 29V70.6667M51 70.6667L31 50.6667M51 70.6667L71 50.6667" stroke="white" stroke-width="2.55245" stroke-linecap="round" stroke-linejoin="round"/>
<path d="M50 162V621" stroke="#323232" stroke-width="5"/>
<path d="M50 837V1296" stroke="#323232" stroke-width="5"/>
<path d="M50 1492V1951" stroke="#323232" stroke-width="5"/>
<path d="M50 2157V2616" stroke="#323232" stroke-width="5"/>
<path d="M50 2841V3300" stroke="#323232" stroke-width="5"/>
<circle cx="51" cy="733" r="49" fill="#151517" stroke="#323232" stroke-width="2"/>
<path d="M41.2095 748.639C38.7663 748.63 36.6641 748.028 34.9027 746.835C33.1508 745.642 31.8014 743.914 30.8544 741.651C29.9169 739.387 29.4529 736.665 29.4624 733.483C29.4624 730.311 29.9311 727.607 30.8686 725.372C31.8156 723.137 33.165 721.437 34.9169 720.273C36.6783 719.098 38.7758 718.511 41.2095 718.511C43.6432 718.511 45.736 719.098 47.4879 720.273C49.2493 721.447 50.6035 723.152 51.5504 725.386C52.4974 727.612 52.9661 730.311 52.9567 733.483C52.9567 736.674 52.4832 739.402 51.5362 741.665C50.5987 743.928 49.254 745.656 47.5021 746.849C45.7502 748.043 43.6527 748.639 41.2095 748.639ZM41.2095 743.54C42.8762 743.54 44.2067 742.702 45.201 741.026C46.1953 739.349 46.6877 736.835 46.6783 733.483C46.6783 731.277 46.451 729.439 45.9964 727.972C45.5514 726.504 44.9169 725.401 44.093 724.662C43.2786 723.923 42.3175 723.554 41.2095 723.554C39.5523 723.554 38.2266 724.383 37.2322 726.04C36.2379 727.697 35.736 730.178 35.7266 733.483C35.7266 735.718 35.9491 737.583 36.3942 739.08C36.8487 740.566 37.4879 741.684 38.3118 742.432C39.1357 743.17 40.1016 743.54 41.2095 743.54ZM69.9986 718.909V748H63.848V724.747H63.6776L57.0156 728.923V723.469L64.2173 718.909H69.9986Z" fill="white"/>
<circle cx="50" cy="1388" r="49" fill="#151517" stroke="#323232" stroke-width="2"/>
<path d="M37.897 1403.64C35.4538 1403.63 33.3516 1403.03 31.5902 1401.84C29.8383 1400.64 28.4889 1398.91 27.5419 1396.65C26.6044 1394.39 26.1404 1391.66 26.1499 1388.48C26.1499 1385.31 26.6186 1382.61 27.5561 1380.37C28.5031 1378.14 29.8525 1376.44 31.6044 1375.27C33.3658 1374.1 35.4633 1373.51 37.897 1373.51C40.3307 1373.51 42.4235 1374.1 44.1754 1375.27C45.9368 1376.45 47.291 1378.15 48.2379 1380.39C49.1849 1382.61 49.6536 1385.31 49.6442 1388.48C49.6442 1391.67 49.1707 1394.4 48.2237 1396.66C47.2862 1398.93 45.9415 1400.66 44.1896 1401.85C42.4377 1403.04 40.3402 1403.64 37.897 1403.64ZM37.897 1398.54C39.5637 1398.54 40.8942 1397.7 41.8885 1396.03C42.8828 1394.35 43.3752 1391.84 43.3658 1388.48C43.3658 1386.28 43.1385 1384.44 42.6839 1382.97C42.2389 1381.5 41.6044 1380.4 40.7805 1379.66C39.9661 1378.92 39.005 1378.55 37.897 1378.55C36.2398 1378.55 34.9141 1379.38 33.9197 1381.04C32.9254 1382.7 32.4235 1385.18 32.4141 1388.48C32.4141 1390.72 32.6366 1392.58 33.0817 1394.08C33.5362 1395.57 34.1754 1396.68 34.9993 1397.43C35.8232 1398.17 36.7891 1398.54 37.897 1398.54ZM54.0298 1403V1398.57L64.3849 1388.98C65.2656 1388.13 66.0043 1387.36 66.6009 1386.68C67.2069 1386 67.6662 1385.33 67.9787 1384.68C68.2912 1384.01 68.4474 1383.3 68.4474 1382.53C68.4474 1381.68 68.2533 1380.95 67.8651 1380.33C67.4768 1379.7 66.9465 1379.23 66.2741 1378.89C65.6018 1378.55 64.8395 1378.38 63.9872 1378.38C63.0971 1378.38 62.3205 1378.56 61.6577 1378.92C60.9948 1379.28 60.4834 1379.8 60.1236 1380.47C59.7637 1381.14 59.5838 1381.94 59.5838 1382.87H53.7457C53.7457 1380.97 54.1766 1379.32 55.0384 1377.91C55.9001 1376.51 57.1075 1375.43 58.6605 1374.66C60.2135 1373.89 62.0033 1373.51 64.0298 1373.51C66.1132 1373.51 67.9266 1373.88 69.4702 1374.62C71.0232 1375.35 72.2306 1376.36 73.0923 1377.66C73.9541 1378.96 74.3849 1380.44 74.3849 1382.12C74.3849 1383.22 74.1671 1384.3 73.7315 1385.37C73.3054 1386.44 72.5431 1387.63 71.4446 1388.94C70.3461 1390.23 68.7978 1391.79 66.7997 1393.61L62.5526 1397.77V1397.97H74.7685V1403H54.0298Z" fill="white"/>
<circle cx="50" cy="2055" r="49" fill="#151517" stroke="#323232" stroke-width="2"/>
<path d="M36.8111 2070.64C34.3679 2070.63 32.2656 2070.03 30.5043 2068.84C28.7524 2067.64 27.4029 2065.91 26.456 2063.65C25.5185 2061.39 25.0545 2058.66 25.0639 2055.48C25.0639 2052.31 25.5327 2049.61 26.4702 2047.37C27.4171 2045.14 28.7666 2043.44 30.5185 2042.27C32.2798 2041.1 34.3774 2040.51 36.8111 2040.51C39.2448 2040.51 41.3376 2041.1 43.0895 2042.27C44.8509 2043.45 46.205 2045.15 47.152 2047.39C48.099 2049.61 48.5677 2052.31 48.5582 2055.48C48.5582 2058.67 48.0848 2061.4 47.1378 2063.66C46.2003 2065.93 44.8556 2067.66 43.1037 2068.85C41.3518 2070.04 39.2543 2070.64 36.8111 2070.64ZM36.8111 2065.54C38.4777 2065.54 39.8082 2064.7 40.8026 2063.03C41.7969 2061.35 42.2893 2058.84 42.2798 2055.48C42.2798 2053.28 42.0526 2051.44 41.598 2049.97C41.1529 2048.5 40.5185 2047.4 39.6946 2046.66C38.8802 2045.92 37.919 2045.55 36.8111 2045.55C35.1539 2045.55 33.8281 2046.38 32.8338 2048.04C31.8395 2049.7 31.3376 2052.18 31.3281 2055.48C31.3281 2057.72 31.5507 2059.58 31.9957 2061.08C32.4503 2062.57 33.0895 2063.68 33.9134 2064.43C34.7372 2065.17 35.7031 2065.54 36.8111 2065.54ZM63.6967 2070.4C61.5755 2070.4 59.6863 2070.03 58.0291 2069.3C56.3814 2068.57 55.0793 2067.55 54.1229 2066.26C53.1759 2064.97 52.6882 2063.47 52.6598 2061.78H58.853C58.8909 2062.49 59.1229 2063.11 59.549 2063.65C59.9846 2064.18 60.5623 2064.59 61.282 2064.89C62.0017 2065.18 62.8113 2065.33 63.7109 2065.33C64.6484 2065.33 65.477 2065.16 66.1967 2064.83C66.9164 2064.5 67.4799 2064.04 67.8871 2063.45C68.2943 2062.86 68.4979 2062.19 68.4979 2061.42C68.4979 2060.64 68.2801 2059.96 67.8445 2059.36C67.4183 2058.75 66.8028 2058.28 65.9979 2057.94C65.2024 2057.6 64.2554 2057.43 63.157 2057.43H60.4439V2052.91H63.157C64.085 2052.91 64.9041 2052.75 65.6143 2052.43C66.334 2052.11 66.8928 2051.66 67.2905 2051.09C67.6882 2050.52 67.8871 2049.84 67.8871 2049.08C67.8871 2048.35 67.7119 2047.71 67.3615 2047.16C67.0206 2046.6 66.5376 2046.16 65.9126 2045.85C65.2971 2045.54 64.5774 2045.38 63.7536 2045.38C62.9202 2045.38 62.1579 2045.54 61.4666 2045.84C60.7753 2046.13 60.2214 2046.55 59.8047 2047.1C59.388 2047.65 59.1655 2048.3 59.1371 2049.03H53.2422C53.2706 2047.36 53.7488 2045.88 54.6768 2044.6C55.6049 2043.32 56.8549 2042.32 58.4268 2041.61C60.0083 2040.88 61.7933 2040.51 63.782 2040.51C65.7895 2040.51 67.5462 2040.88 69.0518 2041.61C70.5575 2042.33 71.727 2043.32 72.5604 2044.56C73.4032 2045.79 73.8198 2047.17 73.8104 2048.71C73.8198 2050.34 73.3132 2051.7 72.2905 2052.78C71.2772 2053.87 69.9562 2054.56 68.3274 2054.86V2055.09C70.4676 2055.36 72.0964 2056.1 73.2138 2057.32C74.3407 2058.52 74.8994 2060.02 74.8899 2061.83C74.8994 2063.49 74.4212 2064.96 73.4553 2066.25C72.4988 2067.54 71.1778 2068.55 69.4922 2069.29C67.8066 2070.03 65.8748 2070.4 63.6967 2070.4Z" fill="white"/>
<circle cx="50" cy="2720" r="49" fill="#151517" stroke="#323232" stroke-width="2"/>
<path d="M36.94 2735.64C34.4968 2735.63 32.3945 2735.03 30.6332 2733.84C28.8813 2732.64 27.5318 2730.91 26.5849 2728.65C25.6474 2726.39 25.1834 2723.66 25.1928 2720.48C25.1928 2717.31 25.6616 2714.61 26.5991 2712.37C27.546 2710.14 28.8955 2708.44 30.6474 2707.27C32.4087 2706.1 34.5063 2705.51 36.94 2705.51C39.3737 2705.51 41.4665 2706.1 43.2184 2707.27C44.9798 2708.45 46.3339 2710.15 47.2809 2712.39C48.2279 2714.61 48.6966 2717.31 48.6871 2720.48C48.6871 2723.67 48.2137 2726.4 47.2667 2728.66C46.3292 2730.93 44.9845 2732.66 43.2326 2733.85C41.4807 2735.04 39.3832 2735.64 36.94 2735.64ZM36.94 2730.54C38.6067 2730.54 39.9371 2729.7 40.9315 2728.03C41.9258 2726.35 42.4182 2723.84 42.4087 2720.48C42.4087 2718.28 42.1815 2716.44 41.7269 2714.97C41.2818 2713.5 40.6474 2712.4 39.8235 2711.66C39.0091 2710.92 38.0479 2710.55 36.94 2710.55C35.2828 2710.55 33.957 2711.38 32.9627 2713.04C31.9684 2714.7 31.4665 2717.18 31.457 2720.48C31.457 2722.72 31.6796 2724.58 32.1246 2726.08C32.5792 2727.57 33.2184 2728.68 34.0423 2729.43C34.8661 2730.17 35.832 2730.54 36.94 2730.54ZM52.6325 2729.89V2725.04L64.7773 2705.91H68.9535V2712.61H66.4819L58.8256 2724.73V2724.96H76.0842V2729.89H52.6325ZM66.5955 2735V2728.41L66.7092 2726.26V2705.91H72.4762V2735H66.5955Z" fill="white"/>
<circle cx="50" cy="3421" r="49" fill="#151517" stroke="#323232" stroke-width="2"/>
<path d="M37.104 3436.64C34.6609 3436.63 32.5586 3436.03 30.7972 3434.84C29.0453 3433.64 27.6959 3431.91 26.7489 3429.65C25.8114 3427.39 25.3474 3424.66 25.3569 3421.48C25.3569 3418.31 25.8256 3415.61 26.7631 3413.37C27.7101 3411.14 29.0595 3409.44 30.8114 3408.27C32.5728 3407.1 34.6703 3406.51 37.104 3406.51C39.5378 3406.51 41.6306 3407.1 43.3825 3408.27C45.1438 3409.45 46.498 3411.15 47.445 3413.39C48.3919 3415.61 48.8607 3418.31 48.8512 3421.48C48.8512 3424.67 48.3777 3427.4 47.4308 3429.66C46.4933 3431.93 45.1486 3433.66 43.3967 3434.85C41.6448 3436.04 39.5472 3436.64 37.104 3436.64ZM37.104 3431.54C38.7707 3431.54 40.1012 3430.7 41.0955 3429.03C42.0898 3427.35 42.5823 3424.84 42.5728 3421.48C42.5728 3419.28 42.3455 3417.44 41.891 3415.97C41.4459 3414.5 40.8114 3413.4 39.9876 3412.66C39.1732 3411.92 38.212 3411.55 37.104 3411.55C35.4469 3411.55 34.1211 3412.38 33.1268 3414.04C32.1325 3415.7 31.6306 3418.18 31.6211 3421.48C31.6211 3423.72 31.8436 3425.58 32.2887 3427.08C32.7433 3428.57 33.3825 3429.68 34.2063 3430.43C35.0302 3431.17 35.9961 3431.54 37.104 3431.54ZM63.8619 3436.4C61.8543 3436.4 60.0645 3436.03 58.4925 3435.29C56.93 3434.55 55.6895 3433.53 54.771 3432.24C53.8524 3430.94 53.3742 3429.45 53.3363 3427.78H59.3022C59.3685 3428.9 59.842 3429.82 60.7227 3430.52C61.6033 3431.22 62.6497 3431.57 63.8619 3431.57C64.8278 3431.57 65.68 3431.36 66.4187 3430.93C67.1668 3430.49 67.7492 3429.89 68.1658 3429.12C68.592 3428.35 68.805 3427.46 68.805 3426.45C68.805 3425.43 68.5872 3424.53 68.1516 3423.76C67.7255 3422.98 67.1336 3422.37 66.3761 3421.94C65.6185 3421.5 64.752 3421.28 63.7766 3421.27C62.9244 3421.27 62.0958 3421.45 61.2908 3421.8C60.4954 3422.15 59.8751 3422.62 59.43 3423.23L53.9613 3422.25L55.3391 3406.91H73.1232V3411.94H60.4102L59.6573 3419.22H59.8278C60.3391 3418.5 61.1109 3417.91 62.1431 3417.43C63.1753 3416.96 64.3306 3416.72 65.609 3416.72C67.3609 3416.72 68.9234 3417.14 70.2965 3417.96C71.6696 3418.78 72.7539 3419.92 73.5494 3421.36C74.3448 3422.79 74.7378 3424.43 74.7283 3426.3C74.7378 3428.26 74.2833 3430 73.3647 3431.53C72.4556 3433.04 71.1819 3434.23 69.5437 3435.11C67.9149 3435.97 66.021 3436.4 63.8619 3436.4Z" fill="white"/>
</svg>
