<svg width="100" height="1381" viewBox="0 0 100 1381" fill="none" xmlns="http://www.w3.org/2000/svg">
<circle cx="50" cy="50" r="49" fill="#151517" stroke="#323232" stroke-width="2"/>
<path d="M50 33.5078V81.6512M50 81.6512L30 58.5424M50 81.6512L70 58.5424" stroke="white" stroke-width="2.55245" stroke-linecap="round" stroke-linejoin="round"/>
<circle cx="50" cy="939" r="49" fill="#151517" stroke="#323232" stroke-width="2"/>
<path d="M40.2095 954.639C37.7663 954.63 35.6641 954.028 33.9027 952.835C32.1508 951.642 30.8014 949.914 29.8544 947.651C28.9169 945.387 28.4529 942.665 28.4624 939.483C28.4624 936.311 28.9311 933.607 29.8686 931.372C30.8156 929.137 32.165 927.437 33.9169 926.273C35.6783 925.098 37.7758 924.511 40.2095 924.511C42.6432 924.511 44.736 925.098 46.4879 926.273C48.2493 927.447 49.6035 929.152 50.5504 931.386C51.4974 933.612 51.9661 936.311 51.9567 939.483C51.9567 942.674 51.4832 945.402 50.5362 947.665C49.5987 949.928 48.254 951.656 46.5021 952.849C44.7502 954.043 42.6527 954.639 40.2095 954.639ZM40.2095 949.54C41.8762 949.54 43.2067 948.702 44.201 947.026C45.1953 945.349 45.6877 942.835 45.6783 939.483C45.6783 937.277 45.451 935.439 44.9964 933.972C44.5514 932.504 43.9169 931.401 43.093 930.662C42.2786 929.923 41.3175 929.554 40.2095 929.554C38.5523 929.554 37.2266 930.383 36.2322 932.04C35.2379 933.697 34.736 936.178 34.7266 939.483C34.7266 941.718 34.9491 943.583 35.3942 945.08C35.8487 946.566 36.4879 947.684 37.3118 948.432C38.1357 949.17 39.1016 949.54 40.2095 949.54ZM68.9986 924.909V954H62.848V930.747H62.6776L56.0156 934.923V929.469L63.2173 924.909H68.9986Z" fill="white"/>
<path d="M50 1031V1381" stroke="#323232" stroke-width="5"/>
<path d="M50 492V842" stroke="#323232" stroke-width="5"/>
<path d="M50 142V492" stroke="#323232" stroke-width="5"/>
</svg>
