<svg width="100" height="875" viewBox="0 0 100 875" fill="none" xmlns="http://www.w3.org/2000/svg">
<circle cx="50" cy="433" r="49" fill="#151517" stroke="#323232" stroke-width="2"/>
<path d="M37.897 448.639C35.4538 448.63 33.3516 448.028 31.5902 446.835C29.8383 445.642 28.4889 443.914 27.5419 441.651C26.6044 439.387 26.1404 436.665 26.1499 433.483C26.1499 430.311 26.6186 427.607 27.5561 425.372C28.5031 423.137 29.8525 421.437 31.6044 420.273C33.3658 419.098 35.4633 418.511 37.897 418.511C40.3307 418.511 42.4235 419.098 44.1754 420.273C45.9368 421.447 47.291 423.152 48.2379 425.386C49.1849 427.612 49.6536 430.311 49.6442 433.483C49.6442 436.674 49.1707 439.402 48.2237 441.665C47.2862 443.928 45.9415 445.656 44.1896 446.849C42.4377 448.043 40.3402 448.639 37.897 448.639ZM37.897 443.54C39.5637 443.54 40.8942 442.702 41.8885 441.026C42.8828 439.349 43.3752 436.835 43.3658 433.483C43.3658 431.277 43.1385 429.439 42.6839 427.972C42.2389 426.504 41.6044 425.401 40.7805 424.662C39.9661 423.923 39.005 423.554 37.897 423.554C36.2398 423.554 34.9141 424.383 33.9197 426.04C32.9254 427.697 32.4235 430.178 32.4141 433.483C32.4141 435.718 32.6366 437.583 33.0817 439.08C33.5362 440.566 34.1754 441.684 34.9993 442.432C35.8232 443.17 36.7891 443.54 37.897 443.54ZM54.0298 448V443.568L64.3849 433.98C65.2656 433.128 66.0043 432.361 66.6009 431.679C67.2069 430.997 67.6662 430.33 67.9787 429.676C68.2912 429.013 68.4474 428.298 68.4474 427.531C68.4474 426.679 68.2533 425.945 67.8651 425.33C67.4768 424.705 66.9465 424.226 66.2741 423.895C65.6018 423.554 64.8395 423.384 63.9872 423.384C63.0971 423.384 62.3205 423.563 61.6577 423.923C60.9948 424.283 60.4834 424.799 60.1236 425.472C59.7637 426.144 59.5838 426.944 59.5838 427.872H53.7457C53.7457 425.969 54.1766 424.316 55.0384 422.915C55.9001 421.513 57.1075 420.429 58.6605 419.662C60.2135 418.895 62.0033 418.511 64.0298 418.511C66.1132 418.511 67.9266 418.881 69.4702 419.619C71.0232 420.348 72.2306 421.362 73.0923 422.659C73.9541 423.956 74.3849 425.443 74.3849 427.119C74.3849 428.218 74.1671 429.302 73.7315 430.372C73.3054 431.442 72.5431 432.631 71.4446 433.938C70.3461 435.235 68.7978 436.793 66.7997 438.611L62.5526 442.773V442.972H74.7685V448H54.0298Z" fill="white"/>
<path d="M50 525V875" stroke="#323232" stroke-width="5"/>
<path d="M50 0V350" stroke="#323232" stroke-width="5"/>
</svg>
