<svg width="274" height="218" viewBox="0 0 274 218" fill="none" xmlns="http://www.w3.org/2000/svg">
<g filter="url(#filter0_d_8_54)">
<g clip-path="url(#clip0_8_54)">
<rect x="38" width="232" height="162" rx="6" fill="black"/>
<path d="M66 46L72.9282 56.5H59.0718L66 46Z" fill="#6B6B6B"/>
<path fill-rule="evenodd" clip-rule="evenodd" d="M250 142H152C149.239 142 147 144.239 147 147V197C147 199.761 149.239 202 152 202H250C252.761 202 255 199.761 255 197V147C255 144.239 252.761 142 250 142ZM152 141C148.686 141 146 143.686 146 147V197C146 200.314 148.686 203 152 203H250C253.314 203 256 200.314 256 197V147C256 143.686 253.314 141 250 141H152Z" fill="#373737"/>
<path fill-rule="evenodd" clip-rule="evenodd" d="M78 36.6H53C52.2268 36.6 51.6 37.2268 51.6 38V64C51.6 64.7732 52.2268 65.4 53 65.4H78C78.7732 65.4 79.4 64.7732 79.4 64V38C79.4 37.2268 78.7732 36.6 78 36.6ZM53 36C51.8954 36 51 36.8954 51 38V64C51 65.1046 51.8954 66 53 66H78C79.1046 66 80 65.1046 80 64V38C80 36.8954 79.1046 36 78 36H53Z" fill="#6B6B6B"/>
<path d="M219 41C219 38.2386 221.239 36 224 36H251C253.761 36 256 38.2386 256 41C256 43.7614 253.761 46 251 46H224C221.239 46 219 43.7614 219 41Z" fill="#6B6B6B"/>
<path d="M116 56H256V60H116V56Z" fill="#373737"/>
<path d="M96 56H110V60H96V56Z" fill="#6B6B6B"/>
<path d="M51 81H84V85H51V81Z" fill="#6B6B6B"/>
<path d="M51 90H80V94H51V90Z" fill="#373737"/>
<path d="M51 99H80V103H51V99Z" fill="#373737"/>
<path d="M51 108H74V112H51V108Z" fill="#373737"/>
<path fill-rule="evenodd" clip-rule="evenodd" d="M134 76H102C99.2386 76 97 78.2386 97 81V98C97 100.761 99.2386 103 102 103H134C136.761 103 139 100.761 139 98V81C139 78.2386 136.761 76 134 76ZM102 75C98.6863 75 96 77.6863 96 81V98C96 101.314 98.6863 104 102 104H134C137.314 104 140 101.314 140 98V81C140 77.6863 137.314 75 134 75H102Z" fill="#373737"/>
<path fill-rule="evenodd" clip-rule="evenodd" d="M134 109H102C99.2386 109 97 111.239 97 114V131C97 133.761 99.2386 136 102 136H134C136.761 136 139 133.761 139 131V114C139 111.239 136.761 109 134 109ZM102 108C98.6863 108 96 110.686 96 114V131C96 134.314 98.6863 137 102 137H134C137.314 137 140 134.314 140 131V114C140 110.686 137.314 108 134 108H102Z" fill="#373737"/>
<path fill-rule="evenodd" clip-rule="evenodd" d="M134 142H102C99.2386 142 97 144.239 97 147V164C97 166.761 99.2386 169 102 169H134C136.761 169 139 166.761 139 164V147C139 144.239 136.761 142 134 142ZM102 141C98.6863 141 96 143.686 96 147V164C96 167.314 98.6863 170 102 170H134C137.314 170 140 167.314 140 164V147C140 143.686 137.314 141 134 141H102Z" fill="#373737"/>
<path fill-rule="evenodd" clip-rule="evenodd" d="M250 76H152C149.239 76 147 78.2386 147 81V131C147 133.761 149.239 136 152 136H250C252.761 136 255 133.761 255 131V81C255 78.2386 252.761 76 250 76ZM152 75C148.686 75 146 77.6863 146 81V131C146 134.314 148.686 137 152 137H250C253.314 137 256 134.314 256 131V81C256 77.6863 253.314 75 250 75H152Z" fill="#373737"/>
<path d="M38 6C38 2.68629 40.6863 0 44 0H264C267.314 0 270 2.68629 270 6V15H38V6Z" fill="#1B1B1B"/>
<path fill-rule="evenodd" clip-rule="evenodd" d="M264 0.6H44C41.0177 0.6 38.6 3.01766 38.6 6V14.4H269.4V6C269.4 3.01766 266.982 0.6 264 0.6ZM44 0C40.6863 0 38 2.68629 38 6V15H270V6C270 2.68629 267.314 0 264 0H44Z" fill="#6B6B6B"/>
<path fill-rule="evenodd" clip-rule="evenodd" d="M49.5 9.4C50.5493 9.4 51.4 8.54934 51.4 7.5C51.4 6.45066 50.5493 5.6 49.5 5.6C48.4507 5.6 47.6 6.45066 47.6 7.5C47.6 8.54934 48.4507 9.4 49.5 9.4ZM49.5 10C50.8807 10 52 8.88071 52 7.5C52 6.11929 50.8807 5 49.5 5C48.1193 5 47 6.11929 47 7.5C47 8.88071 48.1193 10 49.5 10Z" fill="#6B6B6B"/>
<path fill-rule="evenodd" clip-rule="evenodd" d="M56.5 9.4C57.5493 9.4 58.4 8.54934 58.4 7.5C58.4 6.45066 57.5493 5.6 56.5 5.6C55.4507 5.6 54.6 6.45066 54.6 7.5C54.6 8.54934 55.4507 9.4 56.5 9.4ZM56.5 10C57.8807 10 59 8.88071 59 7.5C59 6.11929 57.8807 5 56.5 5C55.1193 5 54 6.11929 54 7.5C54 8.88071 55.1193 10 56.5 10Z" fill="#6B6B6B"/>
<path fill-rule="evenodd" clip-rule="evenodd" d="M63.5 9.4C64.5493 9.4 65.4 8.54934 65.4 7.5C65.4 6.45066 64.5493 5.6 63.5 5.6C62.4507 5.6 61.6 6.45066 61.6 7.5C61.6 8.54934 62.4507 9.4 63.5 9.4ZM63.5 10C64.8807 10 66 8.88071 66 7.5C66 6.11929 64.8807 5 63.5 5C62.1193 5 61 6.11929 61 7.5C61 8.88071 62.1193 10 63.5 10Z" fill="#6B6B6B"/>
</g>
<rect x="38.3" y="0.3" width="231.4" height="161.4" rx="5.7" stroke="#616161" stroke-width="0.6"/>
</g>
<g filter="url(#filter1_d_8_54)">
<g clip-path="url(#clip1_8_54)">
<rect x="21" y="24" width="232" height="162" rx="6" fill="black"/>
<path d="M49 70L55.9282 80.5H42.0718L49 70Z" fill="#6B6B6B"/>
<path fill-rule="evenodd" clip-rule="evenodd" d="M233 166H135C132.239 166 130 168.239 130 171V221C130 223.761 132.239 226 135 226H233C235.761 226 238 223.761 238 221V171C238 168.239 235.761 166 233 166ZM135 165C131.686 165 129 167.686 129 171V221C129 224.314 131.686 227 135 227H233C236.314 227 239 224.314 239 221V171C239 167.686 236.314 165 233 165H135Z" fill="#373737"/>
<path fill-rule="evenodd" clip-rule="evenodd" d="M61 60.6H36C35.2268 60.6 34.6 61.2268 34.6 62V88C34.6 88.7732 35.2268 89.4 36 89.4H61C61.7732 89.4 62.4 88.7732 62.4 88V62C62.4 61.2268 61.7732 60.6 61 60.6ZM36 60C34.8954 60 34 60.8954 34 62V88C34 89.1046 34.8954 90 36 90H61C62.1046 90 63 89.1046 63 88V62C63 60.8954 62.1046 60 61 60H36Z" fill="#6B6B6B"/>
<path d="M202 65C202 62.2386 204.239 60 207 60H234C236.761 60 239 62.2386 239 65V65C239 67.7614 236.761 70 234 70H207C204.239 70 202 67.7614 202 65V65Z" fill="#6B6B6B"/>
<path d="M99 80H239V84H99V80Z" fill="#373737"/>
<path d="M79 80H93V84H79V80Z" fill="#6B6B6B"/>
<path d="M34 105H67V109H34V105Z" fill="#6B6B6B"/>
<path d="M34 114H63V118H34V114Z" fill="#373737"/>
<path d="M34 123H63V127H34V123Z" fill="#373737"/>
<path d="M34 132H57V136H34V132Z" fill="#373737"/>
<path fill-rule="evenodd" clip-rule="evenodd" d="M117 100H85C82.2386 100 80 102.239 80 105V122C80 124.761 82.2386 127 85 127H117C119.761 127 122 124.761 122 122V105C122 102.239 119.761 100 117 100ZM85 99C81.6863 99 79 101.686 79 105V122C79 125.314 81.6863 128 85 128H117C120.314 128 123 125.314 123 122V105C123 101.686 120.314 99 117 99H85Z" fill="#373737"/>
<path fill-rule="evenodd" clip-rule="evenodd" d="M117 133H85C82.2386 133 80 135.239 80 138V155C80 157.761 82.2386 160 85 160H117C119.761 160 122 157.761 122 155V138C122 135.239 119.761 133 117 133ZM85 132C81.6863 132 79 134.686 79 138V155C79 158.314 81.6863 161 85 161H117C120.314 161 123 158.314 123 155V138C123 134.686 120.314 132 117 132H85Z" fill="#373737"/>
<path fill-rule="evenodd" clip-rule="evenodd" d="M117 166H85C82.2386 166 80 168.239 80 171V188C80 190.761 82.2386 193 85 193H117C119.761 193 122 190.761 122 188V171C122 168.239 119.761 166 117 166ZM85 165C81.6863 165 79 167.686 79 171V188C79 191.314 81.6863 194 85 194H117C120.314 194 123 191.314 123 188V171C123 167.686 120.314 165 117 165H85Z" fill="#373737"/>
<path fill-rule="evenodd" clip-rule="evenodd" d="M233 100H135C132.239 100 130 102.239 130 105V155C130 157.761 132.239 160 135 160H233C235.761 160 238 157.761 238 155V105C238 102.239 235.761 100 233 100ZM135 99C131.686 99 129 101.686 129 105V155C129 158.314 131.686 161 135 161H233C236.314 161 239 158.314 239 155V105C239 101.686 236.314 99 233 99H135Z" fill="#373737"/>
<path d="M21 30C21 26.6863 23.6863 24 27 24H247C250.314 24 253 26.6863 253 30V39H21V30Z" fill="#1B1B1B"/>
<path fill-rule="evenodd" clip-rule="evenodd" d="M247 24.6H27C24.0177 24.6 21.6 27.0177 21.6 30V38.4H252.4V30C252.4 27.0177 249.982 24.6 247 24.6ZM27 24C23.6863 24 21 26.6863 21 30V39H253V30C253 26.6863 250.314 24 247 24H27Z" fill="#6B6B6B"/>
<path fill-rule="evenodd" clip-rule="evenodd" d="M32.5 33.4C33.5493 33.4 34.4 32.5493 34.4 31.5C34.4 30.4507 33.5493 29.6 32.5 29.6C31.4507 29.6 30.6 30.4507 30.6 31.5C30.6 32.5493 31.4507 33.4 32.5 33.4ZM32.5 34C33.8807 34 35 32.8807 35 31.5C35 30.1193 33.8807 29 32.5 29C31.1193 29 30 30.1193 30 31.5C30 32.8807 31.1193 34 32.5 34Z" fill="#6B6B6B"/>
<path fill-rule="evenodd" clip-rule="evenodd" d="M39.5 33.4C40.5493 33.4 41.4 32.5493 41.4 31.5C41.4 30.4507 40.5493 29.6 39.5 29.6C38.4507 29.6 37.6 30.4507 37.6 31.5C37.6 32.5493 38.4507 33.4 39.5 33.4ZM39.5 34C40.8807 34 42 32.8807 42 31.5C42 30.1193 40.8807 29 39.5 29C38.1193 29 37 30.1193 37 31.5C37 32.8807 38.1193 34 39.5 34Z" fill="#6B6B6B"/>
<path fill-rule="evenodd" clip-rule="evenodd" d="M46.5 33.4C47.5493 33.4 48.4 32.5493 48.4 31.5C48.4 30.4507 47.5493 29.6 46.5 29.6C45.4507 29.6 44.6 30.4507 44.6 31.5C44.6 32.5493 45.4507 33.4 46.5 33.4ZM46.5 34C47.8807 34 49 32.8807 49 31.5C49 30.1193 47.8807 29 46.5 29C45.1193 29 44 30.1193 44 31.5C44 32.8807 45.1193 34 46.5 34Z" fill="#6B6B6B"/>
</g>
<rect x="21.3" y="24.3" width="231.4" height="161.4" rx="5.7" stroke="#616161" stroke-width="0.6"/>
</g>
<g filter="url(#filter2_d_8_54)">
<g clip-path="url(#clip2_8_54)">
<rect x="4" y="48" width="232" height="162" rx="6" fill="black"/>
<path d="M32 94L38.9282 104.5H25.0718L32 94Z" fill="#6B6B6B"/>
<path fill-rule="evenodd" clip-rule="evenodd" d="M216 190H118C115.239 190 113 192.239 113 195V245C113 247.761 115.239 250 118 250H216C218.761 250 221 247.761 221 245V195C221 192.239 218.761 190 216 190ZM118 189C114.686 189 112 191.686 112 195V245C112 248.314 114.686 251 118 251H216C219.314 251 222 248.314 222 245V195C222 191.686 219.314 189 216 189H118Z" fill="#373737"/>
<path fill-rule="evenodd" clip-rule="evenodd" d="M44 84.6H19C18.2268 84.6 17.6 85.2268 17.6 86V112C17.6 112.773 18.2268 113.4 19 113.4H44C44.7732 113.4 45.4 112.773 45.4 112V86C45.4 85.2268 44.7732 84.6 44 84.6ZM19 84C17.8954 84 17 84.8954 17 86V112C17 113.105 17.8954 114 19 114H44C45.1046 114 46 113.105 46 112V86C46 84.8954 45.1046 84 44 84H19Z" fill="#6B6B6B"/>
<path d="M185 89C185 86.2386 187.239 84 190 84H217C219.761 84 222 86.2386 222 89V89C222 91.7614 219.761 94 217 94H190C187.239 94 185 91.7614 185 89V89Z" fill="#6B6B6B"/>
<path d="M82 104H222V108H82V104Z" fill="#373737"/>
<path d="M62 104H76V108H62V104Z" fill="#6B6B6B"/>
<path d="M17 129H50V133H17V129Z" fill="#6B6B6B"/>
<path d="M17 138H46V142H17V138Z" fill="#373737"/>
<path d="M17 147H46V151H17V147Z" fill="#373737"/>
<path d="M17 156H40V160H17V156Z" fill="#373737"/>
<path fill-rule="evenodd" clip-rule="evenodd" d="M100 124H68C65.2386 124 63 126.239 63 129V146C63 148.761 65.2386 151 68 151H100C102.761 151 105 148.761 105 146V129C105 126.239 102.761 124 100 124ZM68 123C64.6863 123 62 125.686 62 129V146C62 149.314 64.6863 152 68 152H100C103.314 152 106 149.314 106 146V129C106 125.686 103.314 123 100 123H68Z" fill="#373737"/>
<path fill-rule="evenodd" clip-rule="evenodd" d="M100 157H68C65.2386 157 63 159.239 63 162V179C63 181.761 65.2386 184 68 184H100C102.761 184 105 181.761 105 179V162C105 159.239 102.761 157 100 157ZM68 156C64.6863 156 62 158.686 62 162V179C62 182.314 64.6863 185 68 185H100C103.314 185 106 182.314 106 179V162C106 158.686 103.314 156 100 156H68Z" fill="#373737"/>
<path fill-rule="evenodd" clip-rule="evenodd" d="M100 190H68C65.2386 190 63 192.239 63 195V212C63 214.761 65.2386 217 68 217H100C102.761 217 105 214.761 105 212V195C105 192.239 102.761 190 100 190ZM68 189C64.6863 189 62 191.686 62 195V212C62 215.314 64.6863 218 68 218H100C103.314 218 106 215.314 106 212V195C106 191.686 103.314 189 100 189H68Z" fill="#373737"/>
<path fill-rule="evenodd" clip-rule="evenodd" d="M216 124H118C115.239 124 113 126.239 113 129V179C113 181.761 115.239 184 118 184H216C218.761 184 221 181.761 221 179V129C221 126.239 218.761 124 216 124ZM118 123C114.686 123 112 125.686 112 129V179C112 182.314 114.686 185 118 185H216C219.314 185 222 182.314 222 179V129C222 125.686 219.314 123 216 123H118Z" fill="#373737"/>
<path d="M4 54C4 50.6863 6.68629 48 10 48H230C233.314 48 236 50.6863 236 54V63H4V54Z" fill="#1B1B1B"/>
<path fill-rule="evenodd" clip-rule="evenodd" d="M230 48.6H10C7.01766 48.6 4.6 51.0177 4.6 54V62.4H235.4V54C235.4 51.0177 232.982 48.6 230 48.6ZM10 48C6.68629 48 4 50.6863 4 54V63H236V54C236 50.6863 233.314 48 230 48H10Z" fill="#6B6B6B"/>
<path fill-rule="evenodd" clip-rule="evenodd" d="M15.5 57.4C16.5493 57.4 17.4 56.5493 17.4 55.5C17.4 54.4507 16.5493 53.6 15.5 53.6C14.4507 53.6 13.6 54.4507 13.6 55.5C13.6 56.5493 14.4507 57.4 15.5 57.4ZM15.5 58C16.8807 58 18 56.8807 18 55.5C18 54.1193 16.8807 53 15.5 53C14.1193 53 13 54.1193 13 55.5C13 56.8807 14.1193 58 15.5 58Z" fill="#6B6B6B"/>
<path fill-rule="evenodd" clip-rule="evenodd" d="M22.5 57.4C23.5493 57.4 24.4 56.5493 24.4 55.5C24.4 54.4507 23.5493 53.6 22.5 53.6C21.4507 53.6 20.6 54.4507 20.6 55.5C20.6 56.5493 21.4507 57.4 22.5 57.4ZM22.5 58C23.8807 58 25 56.8807 25 55.5C25 54.1193 23.8807 53 22.5 53C21.1193 53 20 54.1193 20 55.5C20 56.8807 21.1193 58 22.5 58Z" fill="#6B6B6B"/>
<path fill-rule="evenodd" clip-rule="evenodd" d="M29.5 57.4C30.5493 57.4 31.4 56.5493 31.4 55.5C31.4 54.4507 30.5493 53.6 29.5 53.6C28.4507 53.6 27.6 54.4507 27.6 55.5C27.6 56.5493 28.4507 57.4 29.5 57.4ZM29.5 58C30.8807 58 32 56.8807 32 55.5C32 54.1193 30.8807 53 29.5 53C28.1193 53 27 54.1193 27 55.5C27 56.8807 28.1193 58 29.5 58Z" fill="#6B6B6B"/>
</g>
<rect x="4.3" y="48.3" width="231.4" height="161.4" rx="5.7" stroke="#616161" stroke-width="0.6"/>
</g>
<defs>
<filter id="filter0_d_8_54" x="34" y="0" width="240" height="170" filterUnits="userSpaceOnUse" color-interpolation-filters="sRGB">
<feFlood flood-opacity="0" result="BackgroundImageFix"/>
<feColorMatrix in="SourceAlpha" type="matrix" values="0 0 0 0 0 0 0 0 0 0 0 0 0 0 0 0 0 0 127 0" result="hardAlpha"/>
<feOffset dy="4"/>
<feGaussianBlur stdDeviation="2"/>
<feComposite in2="hardAlpha" operator="out"/>
<feColorMatrix type="matrix" values="0 0 0 0 0 0 0 0 0 0 0 0 0 0 0 0 0 0 0.25 0"/>
<feBlend mode="normal" in2="BackgroundImageFix" result="effect1_dropShadow_8_54"/>
<feBlend mode="normal" in="SourceGraphic" in2="effect1_dropShadow_8_54" result="shape"/>
</filter>
<filter id="filter1_d_8_54" x="17" y="24" width="240" height="170" filterUnits="userSpaceOnUse" color-interpolation-filters="sRGB">
<feFlood flood-opacity="0" result="BackgroundImageFix"/>
<feColorMatrix in="SourceAlpha" type="matrix" values="0 0 0 0 0 0 0 0 0 0 0 0 0 0 0 0 0 0 127 0" result="hardAlpha"/>
<feOffset dy="4"/>
<feGaussianBlur stdDeviation="2"/>
<feComposite in2="hardAlpha" operator="out"/>
<feColorMatrix type="matrix" values="0 0 0 0 0 0 0 0 0 0 0 0 0 0 0 0 0 0 0.25 0"/>
<feBlend mode="normal" in2="BackgroundImageFix" result="effect1_dropShadow_8_54"/>
<feBlend mode="normal" in="SourceGraphic" in2="effect1_dropShadow_8_54" result="shape"/>
</filter>
<filter id="filter2_d_8_54" x="0" y="48" width="240" height="170" filterUnits="userSpaceOnUse" color-interpolation-filters="sRGB">
<feFlood flood-opacity="0" result="BackgroundImageFix"/>
<feColorMatrix in="SourceAlpha" type="matrix" values="0 0 0 0 0 0 0 0 0 0 0 0 0 0 0 0 0 0 127 0" result="hardAlpha"/>
<feOffset dy="4"/>
<feGaussianBlur stdDeviation="2"/>
<feComposite in2="hardAlpha" operator="out"/>
<feColorMatrix type="matrix" values="0 0 0 0 0 0 0 0 0 0 0 0 0 0 0 0 0 0 0.25 0"/>
<feBlend mode="normal" in2="BackgroundImageFix" result="effect1_dropShadow_8_54"/>
<feBlend mode="normal" in="SourceGraphic" in2="effect1_dropShadow_8_54" result="shape"/>
</filter>
<clipPath id="clip0_8_54">
<rect x="38" width="232" height="162" rx="6" fill="white"/>
</clipPath>
<clipPath id="clip1_8_54">
<rect x="21" y="24" width="232" height="162" rx="6" fill="white"/>
</clipPath>
<clipPath id="clip2_8_54">
<rect x="4" y="48" width="232" height="162" rx="6" fill="white"/>
</clipPath>
</defs>
</svg>
